<svg version="1.1" id="Layer_1" xmlns="http://www.w3.org/2000/svg" xmlns:xlink="http://www.w3.org/1999/xlink" x="0px" y="0px"
	 width="100%" viewBox="0 0 756 625" enable-background="new 0 0 756 625" xml:space="preserve">
<path fill="#FFFFFF" opacity="0" stroke="none" 
	d="
M757.000000,2.000000 
	C757.000000,209.956482 757.000000,417.912964 757.000000,625.934692 
	C505.096252,625.934692 253.192490,625.934692 1.000000,625.934692 
	C1.000000,418.306549 1.000000,210.612991 1.227768,2.361693 
	C1.746467,1.610105 1.927954,1.342113 2.000000,1.000000 
	C253.026855,1.000000 504.053711,1.000000 755.635376,1.228841 
	C756.392883,1.738783 756.662842,1.919555 757.000000,2.000000 
M425.338348,57.003719 
	C383.161743,25.909697 336.175598,14.674177 284.721100,24.300926 
	C250.197479,30.760038 220.047745,46.413124 195.037689,71.397514 
	C160.032013,106.367310 125.011871,141.322800 90.073463,176.359756 
	C51.790318,214.750900 34.138573,261.035004 37.902435,315.167267 
	C40.828667,357.252686 56.696861,394.064209 86.162926,424.226685 
	C125.626266,464.622742 165.865204,504.261932 205.842728,544.154358 
	C220.395218,558.675781 237.434845,569.729553 256.181976,577.898926 
	C299.270874,596.675659 343.232422,598.073547 387.597351,582.799683 
	C403.543365,577.309814 418.824585,570.000916 431.674774,558.906799 
	C440.852142,550.983521 448.948456,541.808044 458.299347,533.059937 
	C459.295837,533.077454 460.315796,532.961548 461.285431,533.131836 
	C488.742371,537.956604 516.171570,537.932556 543.658203,533.176575 
	C604.453918,522.657227 654.629150,493.471039 693.258179,445.703247 
	C740.402588,387.405579 757.424255,320.397278 743.901978,246.765976 
	C729.227478,166.860428 683.922546,108.800400 612.233032,71.297218 
	C588.028198,58.634911 562.004028,51.253510 534.849243,47.788963 
	C510.239502,44.649136 485.698730,44.802147 461.306366,49.149498 
	C449.394196,51.272556 437.699890,54.618034 425.338348,57.003719 
z"/>
<path fill="#E1E4E7" opacity="1.000000" stroke="none" 
	d="
M1.500000,1.000000 
	C1.927954,1.342113 1.746467,1.610105 1.227768,1.901988 
	C1.000000,1.666667 1.000000,1.333333 1.500000,1.000000 
z"/>
<path fill="#E1E4E7" opacity="1.000000" stroke="none" 
	d="
M757.000000,1.500000 
	C756.662842,1.919555 756.392883,1.738783 756.095093,1.228841 
	C756.333313,1.000000 756.666687,1.000000 757.000000,1.500000 
z"/>
<path fill="#5271FF" opacity="1.000000" stroke="none" 
	d="
M457.527222,533.191406 
	C448.948456,541.808044 440.852142,550.983521 431.674774,558.906799 
	C418.824585,570.000916 403.543365,577.309814 387.597351,582.799683 
	C343.232422,598.073547 299.270874,596.675659 256.181976,577.898926 
	C237.434845,569.729553 220.395218,558.675781 205.842728,544.154358 
	C165.865204,504.261932 125.626266,464.622742 86.162926,424.226685 
	C56.696861,394.064209 40.828667,357.252686 37.902435,315.167267 
	C34.138573,261.035004 51.790318,214.750900 90.073463,176.359756 
	C125.011871,141.322800 160.032013,106.367310 195.037689,71.397514 
	C220.047745,46.413124 250.197479,30.760038 284.721100,24.300926 
	C336.175598,14.674177 383.161743,25.909697 425.354370,57.404800 
	C406.916290,64.133018 389.302155,72.243637 372.764282,82.628441 
	C357.102173,92.463318 342.385254,103.476189 329.529114,117.354942 
	C308.973328,121.183105 294.071594,131.930588 285.840057,150.977097 
	C281.178833,161.762466 279.290741,173.206421 279.590698,185.152481 
	C276.885712,188.917999 274.474579,192.529800 272.035278,196.104141 
	C272.007080,196.066681 272.085297,196.014969 271.873871,196.101044 
	C271.382233,196.338486 271.184662,196.562668 270.811890,197.099854 
	C231.893372,219.221649 193.221481,241.083496 154.601013,263.035858 
	C152.376419,264.300354 150.987137,264.264923 148.970978,262.582581 
	C136.308990,252.016937 121.649712,248.367661 105.552582,251.275177 
	C76.485031,256.525452 57.497772,286.045410 64.205833,315.116058 
	C70.919907,344.212769 100.882736,361.808838 129.641678,353.393433 
	C153.584930,346.387177 170.594803,323.412231 167.077789,296.375946 
	C166.629059,292.926392 167.469879,290.988861 170.652283,289.314301 
	C179.043060,284.899231 187.203857,280.048981 195.489044,275.430939 
	C212.627533,265.878235 229.787308,256.363739 246.921387,247.231766 
	C239.493408,272.577209 237.106262,298.043884 240.177338,323.839752 
	C243.143723,348.756317 250.185959,372.576294 262.863068,394.382172 
	C267.749084,402.786591 273.804962,410.510864 279.414307,418.963196 
	C279.676910,427.788025 279.107330,436.290710 280.174866,444.582611 
	C282.910187,465.828796 294.400146,481.129303 313.838409,490.131073 
	C328.696655,497.011871 343.816437,496.249786 359.220184,490.695923 
	C360.391937,491.386902 361.249725,491.894653 362.065674,492.462463 
	C384.621216,508.157166 408.984802,520.038330 435.541412,527.286133 
	C442.861969,529.284058 450.198181,531.224548 457.527222,533.191406 
z"/>
<path fill="#5CE1E6" opacity="1.000000" stroke="none" 
	d="
M457.913269,533.125671 
	C450.198181,531.224548 442.861969,529.284058 435.541412,527.286133 
	C408.984802,520.038330 384.621216,508.157166 362.065674,492.462463 
	C361.249725,491.894653 360.391937,491.386902 359.469299,490.494110 
	C363.173767,488.006653 366.962585,485.876312 371.159973,483.826782 
	C388.867584,489.070587 406.519928,492.410095 424.571655,492.780090 
	C450.985840,493.321503 476.655090,489.029297 501.109802,478.808807 
	C553.791748,456.791138 589.800903,418.689362 609.425659,365.186646 
	C614.876831,350.325104 618.542908,334.952606 618.937988,318.509888 
	C618.978149,312.096649 618.998779,306.149445 618.988342,300.202332 
	C618.983643,297.537354 618.916687,294.872467 618.927612,291.727783 
	C618.343079,283.811615 618.283264,276.273102 616.982361,268.955292 
	C607.986389,218.351852 582.423828,177.745193 540.906128,147.820663 
	C499.077057,117.671669 452.054016,106.326172 400.967407,114.187836 
	C388.287079,116.139191 376.003845,120.670921 363.207947,123.944946 
	C352.507904,118.492317 341.445892,116.536240 329.854492,117.199989 
	C342.385254,103.476189 357.102173,92.463318 372.764282,82.628441 
	C389.302155,72.243637 406.916290,64.133018 425.638672,57.608044 
	C437.699890,54.618034 449.394196,51.272556 461.306366,49.149498 
	C485.698730,44.802147 510.239502,44.649136 534.849243,47.788963 
	C562.004028,51.253510 588.028198,58.634911 612.233032,71.297218 
	C683.922546,108.800400 729.227478,166.860428 743.901978,246.765976 
	C757.424255,320.397278 740.402588,387.405579 693.258179,445.703247 
	C654.629150,493.471039 604.453918,522.657227 543.658203,533.176575 
	C516.171570,537.932556 488.742371,537.956604 461.285431,533.131836 
	C460.315796,532.961548 459.295837,533.077454 457.913269,533.125671 
z"/>
<path fill="#FEFEFF" opacity="1.000000" stroke="none" 
	d="
M370.751434,483.745972 
	C366.962585,485.876312 363.173767,488.006653 359.135834,490.338806 
	C343.816437,496.249786 328.696655,497.011871 313.838409,490.131073 
	C294.400146,481.129303 282.910187,465.828796 280.174866,444.582611 
	C279.107330,436.290710 279.676910,427.788025 279.660004,418.661316 
	C285.273163,398.359009 297.628082,385.266785 317.323914,378.476471 
	C317.323914,329.514130 317.323914,280.425476 317.323914,232.599335 
	C310.552673,228.272476 304.343201,224.211365 298.009766,220.353790 
	C297.011078,219.745514 295.139648,219.500641 294.197998,220.027786 
	C278.395203,228.874466 262.676056,237.870605 246.938339,246.833557 
	C229.787308,256.363739 212.627533,265.878235 195.489044,275.430939 
	C187.203857,280.048981 179.043060,284.899231 170.652283,289.314301 
	C167.469879,290.988861 166.629059,292.926392 167.077789,296.375946 
	C170.594803,323.412231 153.584930,346.387177 129.641678,353.393433 
	C100.882736,361.808838 70.919907,344.212769 64.205833,315.116058 
	C57.497772,286.045410 76.485031,256.525452 105.552582,251.275177 
	C121.649712,248.367661 136.308990,252.016937 148.970978,262.582581 
	C150.987137,264.264923 152.376419,264.300354 154.601013,263.035858 
	C193.221481,241.083496 231.893372,219.221649 271.066589,197.079056 
	C271.747864,196.550369 271.916595,196.282669 272.085297,196.014969 
	C272.085297,196.014969 272.007080,196.066681 272.397400,196.072495 
	C281.203522,191.608475 281.203522,191.608475 279.884552,184.998764 
	C279.290741,173.206421 281.178833,161.762466 285.840057,150.977097 
	C294.071594,131.930588 308.973328,121.183105 329.529114,117.354942 
	C341.445892,116.536240 352.507904,118.492317 363.447937,124.217110 
	C384.589020,137.865067 393.840149,156.592453 390.577789,181.010056 
	C390.132141,184.345642 391.008087,185.662415 393.625183,187.185608 
	C422.500488,203.991638 451.307892,220.914230 480.140411,237.793808 
	C494.890594,246.429123 509.654297,255.041382 524.422363,263.670197 
	C525.608337,262.685760 526.622681,261.830505 527.650940,260.992371 
	C551.051636,241.918442 585.474304,244.885361 605.449524,267.525909 
	C611.846863,274.776794 615.445984,283.414032 618.877991,292.207550 
	C618.916687,294.872467 618.983643,297.537354 618.988342,300.202332 
	C618.998779,306.149445 618.978149,312.096649 618.616821,318.663879 
	C617.579102,321.156281 616.910828,323.034668 616.207886,324.900024 
	C605.616028,353.006592 576.913574,368.107513 548.125366,359.774719 
	C539.579651,357.301147 531.828857,352.081268 522.861023,347.703461 
	C481.007050,372.253204 437.887115,397.595612 394.674103,422.778320 
	C391.828003,424.436859 392.121674,426.271912 392.117737,428.874969 
	C392.106323,436.451477 392.423309,444.155090 391.198151,451.575470 
	C388.983002,464.992096 380.724365,475.020721 370.751434,483.745972 
M419.156219,370.673065 
	C447.570435,354.042236 475.963745,337.375519 504.431152,320.836273 
	C507.269348,319.187347 508.038818,317.683105 507.573578,314.207123 
	C506.810120,308.503021 506.661163,302.533783 507.501068,296.861145 
	C508.078064,292.964264 507.224060,291.305359 504.014374,289.440033 
	C465.631561,267.133728 427.333008,244.682480 389.006256,222.279694 
	C384.458038,219.621201 379.873291,217.025223 376.491913,215.082047 
	C366.986816,221.304443 358.329834,226.971649 348.173920,233.620087 
	C348.173920,279.884674 348.147980,327.831787 348.305786,375.778320 
	C348.310272,377.141663 350.012939,378.877350 351.362152,379.794464 
	C358.030273,384.326935 365.171021,388.231171 371.468964,393.211945 
	C374.493958,395.604279 376.173859,395.991760 379.399689,394.038910 
	C392.340057,386.205017 405.459290,378.666565 419.156219,370.673065 
z"/>
<path fill="#5F18EB" opacity="1.000000" stroke="none" 
	d="
M246.921387,247.231766 
	C262.676056,237.870605 278.395203,228.874466 294.197998,220.027786 
	C295.139648,219.500641 297.011078,219.745514 298.009766,220.353790 
	C304.343201,224.211365 310.552673,228.272476 317.323914,232.599335 
	C317.323914,280.425476 317.323914,329.514130 317.323914,378.476471 
	C297.628082,385.266785 285.273163,398.359009 279.573486,418.243164 
	C273.804962,410.510864 267.749084,402.786591 262.863068,394.382172 
	C250.185959,372.576294 243.143723,348.756317 240.177338,323.839752 
	C237.106262,298.043884 239.493408,272.577209 246.921387,247.231766 
z"/>
<path fill="#6526ED" opacity="1.000000" stroke="none" 
	d="
M279.590698,185.152481 
	C281.203522,191.608475 281.203522,191.608475 272.425598,196.109955 
	C274.474579,192.529800 276.885712,188.917999 279.590698,185.152481 
z"/>
<path fill="#6526ED" opacity="1.000000" stroke="none" 
	d="
M271.873871,196.101044 
	C271.916595,196.282669 271.747864,196.550369 271.324463,196.838867 
	C271.184662,196.562668 271.382233,196.338486 271.873871,196.101044 
z"/>
<path fill="#5E18EB" opacity="1.000000" stroke="none" 
	d="
M618.927612,291.727783 
	C615.445984,283.414032 611.846863,274.776794 605.449524,267.525909 
	C585.474304,244.885361 551.051636,241.918442 527.650940,260.992371 
	C526.622681,261.830505 525.608337,262.685760 524.422363,263.670197 
	C509.654297,255.041382 494.890594,246.429123 480.140411,237.793808 
	C451.307892,220.914230 422.500488,203.991638 393.625183,187.185608 
	C391.008087,185.662415 390.132141,184.345642 390.577789,181.010056 
	C393.840149,156.592453 384.589020,137.865067 363.778076,124.288727 
	C376.003845,120.670921 388.287079,116.139191 400.967407,114.187836 
	C452.054016,106.326172 499.077057,117.671669 540.906128,147.820663 
	C582.423828,177.745193 607.986389,218.351852 616.982361,268.955292 
	C618.283264,276.273102 618.343079,283.811615 618.927612,291.727783 
z"/>
<path fill="#5E18EB" opacity="1.000000" stroke="none" 
	d="
M371.159973,483.826782 
	C380.724365,475.020721 388.983002,464.992096 391.198151,451.575470 
	C392.423309,444.155090 392.106323,436.451477 392.117737,428.874969 
	C392.121674,426.271912 391.828003,424.436859 394.674103,422.778320 
	C437.887115,397.595612 481.007050,372.253204 522.861023,347.703461 
	C531.828857,352.081268 539.579651,357.301147 548.125366,359.774719 
	C576.913574,368.107513 605.616028,353.006592 616.207886,324.900024 
	C616.910828,323.034668 617.579102,321.156281 618.584717,319.130005 
	C618.542908,334.952606 614.876831,350.325104 609.425659,365.186646 
	C589.800903,418.689362 553.791748,456.791138 501.109802,478.808807 
	C476.655090,489.029297 450.985840,493.321503 424.571655,492.780090 
	C406.519928,492.410095 388.867584,489.070587 371.159973,483.826782 
z"/>
<path fill="#5F18EB" opacity="1.000000" stroke="none" 
	d="
M418.834290,370.845978 
	C405.459290,378.666565 392.340057,386.205017 379.399689,394.038910 
	C376.173859,395.991760 374.493958,395.604279 371.468964,393.211945 
	C365.171021,388.231171 358.030273,384.326935 351.362152,379.794464 
	C350.012939,378.877350 348.310272,377.141663 348.305786,375.778320 
	C348.147980,327.831787 348.173920,279.884674 348.173920,233.620087 
	C358.329834,226.971649 366.986816,221.304443 376.491913,215.082047 
	C379.873291,217.025223 384.458038,219.621201 389.006256,222.279694 
	C427.333008,244.682480 465.631561,267.133728 504.014374,289.440033 
	C507.224060,291.305359 508.078064,292.964264 507.501068,296.861145 
	C506.661163,302.533783 506.810120,308.503021 507.573578,314.207123 
	C508.038818,317.683105 507.269348,319.187347 504.431152,320.836273 
	C475.963745,337.375519 447.570435,354.042236 418.834290,370.845978 
z"/>
</svg>