<svg xmlns="http://www.w3.org/2000/svg" xmlns:xlink="http://www.w3.org/1999/xlink" width="574" zoomAndPan="magnify" viewBox="0 0 430.5 161.249994" height="215" preserveAspectRatio="xMidYMid meet" version="1.0"><defs><g/><clipPath id="11b33ce7e4"><path d="M 0.746094 0 L 429.253906 0 L 429.253906 160.503906 L 0.746094 160.503906 Z M 0.746094 0 " clip-rule="nonzero"/></clipPath><clipPath id="5220b21769"><path d="M 45 52 L 102 52 L 102 109 L 45 109 Z M 45 52 " clip-rule="nonzero"/></clipPath><clipPath id="e62cdc6047"><path d="M 72.847656 45.535156 L 108.484375 81.171875 L 73.707031 115.949219 L 38.066406 80.3125 Z M 72.847656 45.535156 " clip-rule="nonzero"/></clipPath><clipPath id="15c26a4440"><path d="M 85 57.691406 L 96.035156 68.722656 C 102.75 75.4375 102.75 86.320312 96.035156 93.035156 L 85.929688 103.140625 C 79.21875 109.855469 68.332031 109.855469 61.621094 103.140625 L 50.585938 92.105469 C 43.871094 85.390625 43.871094 74.507812 50.585938 67.796875 L 60.691406 57.691406 C 67.40625 50.976562 78.289062 50.976562 85 57.691406 " clip-rule="nonzero"/></clipPath><clipPath id="bc63622a57"><path d="M 66 55 L 115 55 L 115 103 L 66 103 Z M 66 55 " clip-rule="nonzero"/></clipPath><clipPath id="51f91e1343"><path d="M 90.730469 45.136719 L 124.453125 78.863281 L 90.730469 112.585938 L 57.007812 78.863281 Z M 90.730469 45.136719 " clip-rule="nonzero"/></clipPath><clipPath id="44877ab903"><path d="M 107.589844 62 C 98.277344 52.6875 83.179688 52.6875 73.867188 62 C 64.554688 71.3125 64.554688 86.410156 73.867188 95.722656 C 83.179688 105.035156 98.277344 105.035156 107.589844 95.722656 C 116.902344 86.410156 116.902344 71.3125 107.589844 62 " clip-rule="nonzero"/></clipPath><clipPath id="cbe53a0e24"><path d="M 65 61 L 103 61 L 103 99 L 65 99 Z M 65 61 " clip-rule="nonzero"/></clipPath><clipPath id="2d3d8b4c36"><path d="M 83.640625 53.796875 L 109.796875 79.953125 L 83.640625 106.113281 L 57.480469 79.953125 Z M 83.640625 53.796875 " clip-rule="nonzero"/></clipPath><clipPath id="a5b017933a"><path d="M 96.71875 66.875 C 89.496094 59.652344 77.785156 59.652344 70.5625 66.875 C 63.335938 74.097656 63.335938 85.808594 70.5625 93.03125 C 77.785156 100.257812 89.496094 100.257812 96.71875 93.03125 C 103.941406 85.808594 103.941406 74.097656 96.71875 66.875 " clip-rule="nonzero"/></clipPath><clipPath id="143a763225"><path d="M 69.214844 62.121094 L 102.097656 62.121094 L 102.097656 98.742188 L 69.214844 98.742188 Z M 69.214844 62.121094 " clip-rule="nonzero"/></clipPath><clipPath id="da5e75eada"><path d="M 47 62 L 80 62 L 80 98 L 47 98 Z M 47 62 " clip-rule="nonzero"/></clipPath><clipPath id="898f0fa995"><path d="M 92.117188 72.390625 L 76.226562 99.460938 L 45.933594 81.675781 L 61.824219 54.605469 Z M 92.117188 72.390625 " clip-rule="nonzero"/></clipPath><clipPath id="811040387b"><path d="M 92.117188 72.390625 L 76.226562 99.460938 L 45.933594 81.675781 L 61.824219 54.605469 Z M 92.117188 72.390625 " clip-rule="nonzero"/></clipPath></defs><g clip-path="url(#11b33ce7e4)"><path fill="#ffffff" d="M 0.746094 0 L 429.753906 0 L 429.753906 168.164062 L 0.746094 168.164062 Z M 0.746094 0 " fill-opacity="0" fill-rule="nonzero"/><path fill="#ffffff" d="M 0.746094 0 L 429.753906 0 L 429.753906 160.691406 L 0.746094 160.691406 Z M 0.746094 0 " fill-opacity="1" fill-rule="nonzero"/></g><g fill="#d9d9d9" fill-opacity="0.302"><g transform="translate(119.636965, 110.673633)"><g><path d="M 35.085938 -45.058594 L 35.230469 -19.085938 C 35.230469 -18.082031 35.015625 -17.078125 34.65625 -16.144531 C 34.296875 -15.210938 33.792969 -14.421875 33.078125 -13.703125 C 32.359375 -12.988281 31.570312 -12.484375 30.636719 -12.054688 C 29.703125 -11.625 28.699219 -11.410156 27.625 -11.410156 L 25.183594 -11.410156 C 24.035156 -11.410156 23.03125 -11.625 22.097656 -12.054688 C 21.167969 -12.484375 20.378906 -12.988281 19.660156 -13.703125 C 18.941406 -14.421875 18.441406 -15.210938 18.082031 -16.144531 C 17.652344 -17.078125 17.507812 -18.082031 17.507812 -19.085938 L 17.507812 -45.203125 C 17.507812 -45.847656 17.363281 -46.492188 17.078125 -47.210938 C 16.789062 -47.855469 16.429688 -48.429688 15.929688 -49.003906 C 15.355469 -49.507812 14.707031 -49.9375 13.992188 -50.296875 C 13.273438 -50.65625 12.414062 -50.871094 11.410156 -50.871094 C 10.402344 -50.871094 9.472656 -50.65625 8.753906 -50.296875 C 8.035156 -49.9375 7.390625 -49.507812 6.886719 -48.933594 C 6.3125 -48.359375 5.957031 -47.785156 5.667969 -47.140625 C 5.382812 -46.421875 5.308594 -45.777344 5.308594 -45.128906 L 5.308594 -19.015625 C 5.308594 -16.71875 5.738281 -14.492188 6.671875 -12.199219 C 7.535156 -9.902344 8.824219 -7.890625 10.546875 -6.097656 C 12.269531 -4.234375 14.351562 -2.796875 16.789062 -1.648438 C 19.230469 -0.503906 21.957031 0.0703125 25.113281 0.0703125 L 27.550781 0.0703125 C 30.636719 0.0703125 33.433594 -0.503906 35.875 -1.648438 C 38.3125 -2.796875 40.324219 -4.234375 42.046875 -6.097656 C 43.695312 -7.890625 44.988281 -9.902344 45.921875 -12.199219 C 46.78125 -14.492188 47.28125 -16.71875 47.28125 -19.015625 L 47.28125 -45.128906 C 47.28125 -45.777344 47.140625 -46.421875 46.851562 -47.140625 C 46.566406 -47.785156 46.207031 -48.359375 45.703125 -48.933594 C 45.128906 -49.4375 44.484375 -49.867188 43.765625 -50.226562 C 43.050781 -50.582031 42.1875 -50.800781 41.183594 -50.800781 C 40.179688 -50.800781 39.246094 -50.582031 38.53125 -50.226562 C 37.8125 -49.867188 37.167969 -49.4375 36.664062 -48.863281 C 36.089844 -48.289062 35.730469 -47.714844 35.445312 -47.066406 C 35.15625 -46.351562 35.085938 -45.703125 35.085938 -45.058594 Z M 35.085938 -45.058594 "/></g></g></g><g fill="#d9d9d9" fill-opacity="0.302"><g transform="translate(172.444866, 110.673633)"><g><path d="M 5.238281 -5.597656 C 5.238281 -4.878906 5.382812 -4.234375 5.667969 -3.585938 C 5.957031 -2.871094 6.3125 -2.296875 6.886719 -1.792969 C 7.390625 -1.21875 8.035156 -0.789062 8.824219 -0.503906 C 9.542969 -0.144531 10.402344 0 11.410156 0 C 12.414062 0 13.273438 -0.144531 14.0625 -0.503906 C 14.78125 -0.859375 15.425781 -1.292969 15.929688 -1.867188 C 16.429688 -2.441406 16.789062 -3.011719 17.078125 -3.730469 C 17.292969 -4.375 17.433594 -5.023438 17.433594 -5.667969 L 17.433594 -45.128906 C 17.433594 -45.777344 17.292969 -46.421875 17.003906 -47.140625 C 16.71875 -47.785156 16.359375 -48.359375 15.855469 -48.933594 C 15.28125 -49.4375 14.636719 -49.867188 13.917969 -50.226562 C 13.203125 -50.582031 12.339844 -50.800781 11.335938 -50.800781 C 10.332031 -50.800781 9.398438 -50.582031 8.683594 -50.226562 C 7.964844 -49.867188 7.320312 -49.4375 6.816406 -48.863281 C 6.242188 -48.289062 5.882812 -47.714844 5.597656 -47.066406 C 5.308594 -46.351562 5.238281 -45.703125 5.238281 -45.128906 Z M 5.238281 -5.597656 "/></g></g></g><g fill="#d9d9d9" fill-opacity="0.502"><g transform="translate(116.466038, 107.502705)"><g><path d="M 35.085938 -45.058594 L 35.230469 -19.085938 C 35.230469 -18.082031 35.015625 -17.078125 34.65625 -16.144531 C 34.296875 -15.210938 33.792969 -14.421875 33.078125 -13.703125 C 32.359375 -12.988281 31.570312 -12.484375 30.636719 -12.054688 C 29.703125 -11.625 28.699219 -11.410156 27.625 -11.410156 L 25.183594 -11.410156 C 24.035156 -11.410156 23.03125 -11.625 22.097656 -12.054688 C 21.167969 -12.484375 20.378906 -12.988281 19.660156 -13.703125 C 18.941406 -14.421875 18.441406 -15.210938 18.082031 -16.144531 C 17.652344 -17.078125 17.507812 -18.082031 17.507812 -19.085938 L 17.507812 -45.203125 C 17.507812 -45.847656 17.363281 -46.492188 17.078125 -47.210938 C 16.789062 -47.855469 16.429688 -48.429688 15.929688 -49.003906 C 15.355469 -49.507812 14.707031 -49.9375 13.992188 -50.296875 C 13.273438 -50.65625 12.414062 -50.871094 11.410156 -50.871094 C 10.402344 -50.871094 9.472656 -50.65625 8.753906 -50.296875 C 8.035156 -49.9375 7.390625 -49.507812 6.886719 -48.933594 C 6.3125 -48.359375 5.957031 -47.785156 5.667969 -47.140625 C 5.382812 -46.421875 5.308594 -45.777344 5.308594 -45.128906 L 5.308594 -19.015625 C 5.308594 -16.71875 5.738281 -14.492188 6.671875 -12.199219 C 7.535156 -9.902344 8.824219 -7.890625 10.546875 -6.097656 C 12.269531 -4.234375 14.351562 -2.796875 16.789062 -1.648438 C 19.230469 -0.503906 21.957031 0.0703125 25.113281 0.0703125 L 27.550781 0.0703125 C 30.636719 0.0703125 33.433594 -0.503906 35.875 -1.648438 C 38.3125 -2.796875 40.324219 -4.234375 42.046875 -6.097656 C 43.695312 -7.890625 44.988281 -9.902344 45.921875 -12.199219 C 46.78125 -14.492188 47.28125 -16.71875 47.28125 -19.015625 L 47.28125 -45.128906 C 47.28125 -45.777344 47.140625 -46.421875 46.851562 -47.140625 C 46.566406 -47.785156 46.207031 -48.359375 45.703125 -48.933594 C 45.128906 -49.4375 44.484375 -49.867188 43.765625 -50.226562 C 43.050781 -50.582031 42.1875 -50.800781 41.183594 -50.800781 C 40.179688 -50.800781 39.246094 -50.582031 38.53125 -50.226562 C 37.8125 -49.867188 37.167969 -49.4375 36.664062 -48.863281 C 36.089844 -48.289062 35.730469 -47.714844 35.445312 -47.066406 C 35.15625 -46.351562 35.085938 -45.703125 35.085938 -45.058594 Z M 35.085938 -45.058594 "/></g></g></g><g fill="#d9d9d9" fill-opacity="0.502"><g transform="translate(169.273939, 107.502705)"><g><path d="M 5.238281 -5.597656 C 5.238281 -4.878906 5.382812 -4.234375 5.667969 -3.585938 C 5.957031 -2.871094 6.3125 -2.296875 6.886719 -1.792969 C 7.390625 -1.21875 8.035156 -0.789062 8.824219 -0.503906 C 9.542969 -0.144531 10.402344 0 11.410156 0 C 12.414062 0 13.273438 -0.144531 14.0625 -0.503906 C 14.78125 -0.859375 15.425781 -1.292969 15.929688 -1.867188 C 16.429688 -2.441406 16.789062 -3.011719 17.078125 -3.730469 C 17.292969 -4.375 17.433594 -5.023438 17.433594 -5.667969 L 17.433594 -45.128906 C 17.433594 -45.777344 17.292969 -46.421875 17.003906 -47.140625 C 16.71875 -47.785156 16.359375 -48.359375 15.855469 -48.933594 C 15.28125 -49.4375 14.636719 -49.867188 13.917969 -50.226562 C 13.203125 -50.582031 12.339844 -50.800781 11.335938 -50.800781 C 10.332031 -50.800781 9.398438 -50.582031 8.683594 -50.226562 C 7.964844 -49.867188 7.320312 -49.4375 6.816406 -48.863281 C 6.242188 -48.289062 5.882812 -47.714844 5.597656 -47.066406 C 5.308594 -46.351562 5.238281 -45.703125 5.238281 -45.128906 Z M 5.238281 -5.597656 "/></g></g></g><g fill="#5e17eb" fill-opacity="1"><g transform="translate(113.295111, 104.331778)"><g><path d="M 35.085938 -45.058594 L 35.230469 -19.085938 C 35.230469 -18.082031 35.015625 -17.078125 34.65625 -16.144531 C 34.296875 -15.210938 33.792969 -14.421875 33.078125 -13.703125 C 32.359375 -12.988281 31.570312 -12.484375 30.636719 -12.054688 C 29.703125 -11.625 28.699219 -11.410156 27.625 -11.410156 L 25.183594 -11.410156 C 24.035156 -11.410156 23.03125 -11.625 22.097656 -12.054688 C 21.167969 -12.484375 20.378906 -12.988281 19.660156 -13.703125 C 18.941406 -14.421875 18.441406 -15.210938 18.082031 -16.144531 C 17.652344 -17.078125 17.507812 -18.082031 17.507812 -19.085938 L 17.507812 -45.203125 C 17.507812 -45.847656 17.363281 -46.492188 17.078125 -47.210938 C 16.789062 -47.855469 16.429688 -48.429688 15.929688 -49.003906 C 15.355469 -49.507812 14.707031 -49.9375 13.992188 -50.296875 C 13.273438 -50.65625 12.414062 -50.871094 11.410156 -50.871094 C 10.402344 -50.871094 9.472656 -50.65625 8.753906 -50.296875 C 8.035156 -49.9375 7.390625 -49.507812 6.886719 -48.933594 C 6.3125 -48.359375 5.957031 -47.785156 5.667969 -47.140625 C 5.382812 -46.421875 5.308594 -45.777344 5.308594 -45.128906 L 5.308594 -19.015625 C 5.308594 -16.71875 5.738281 -14.492188 6.671875 -12.199219 C 7.535156 -9.902344 8.824219 -7.890625 10.546875 -6.097656 C 12.269531 -4.234375 14.351562 -2.796875 16.789062 -1.648438 C 19.230469 -0.503906 21.957031 0.0703125 25.113281 0.0703125 L 27.550781 0.0703125 C 30.636719 0.0703125 33.433594 -0.503906 35.875 -1.648438 C 38.3125 -2.796875 40.324219 -4.234375 42.046875 -6.097656 C 43.695312 -7.890625 44.988281 -9.902344 45.921875 -12.199219 C 46.78125 -14.492188 47.28125 -16.71875 47.28125 -19.015625 L 47.28125 -45.128906 C 47.28125 -45.777344 47.140625 -46.421875 46.851562 -47.140625 C 46.566406 -47.785156 46.207031 -48.359375 45.703125 -48.933594 C 45.128906 -49.4375 44.484375 -49.867188 43.765625 -50.226562 C 43.050781 -50.582031 42.1875 -50.800781 41.183594 -50.800781 C 40.179688 -50.800781 39.246094 -50.582031 38.53125 -50.226562 C 37.8125 -49.867188 37.167969 -49.4375 36.664062 -48.863281 C 36.089844 -48.289062 35.730469 -47.714844 35.445312 -47.066406 C 35.15625 -46.351562 35.085938 -45.703125 35.085938 -45.058594 Z M 35.085938 -45.058594 "/></g></g></g><g fill="#5e17eb" fill-opacity="1"><g transform="translate(166.103011, 104.331778)"><g><path d="M 5.238281 -5.597656 C 5.238281 -4.878906 5.382812 -4.234375 5.667969 -3.585938 C 5.957031 -2.871094 6.3125 -2.296875 6.886719 -1.792969 C 7.390625 -1.21875 8.035156 -0.789062 8.824219 -0.503906 C 9.542969 -0.144531 10.402344 0 11.410156 0 C 12.414062 0 13.273438 -0.144531 14.0625 -0.503906 C 14.78125 -0.859375 15.425781 -1.292969 15.929688 -1.867188 C 16.429688 -2.441406 16.789062 -3.011719 17.078125 -3.730469 C 17.292969 -4.375 17.433594 -5.023438 17.433594 -5.667969 L 17.433594 -45.128906 C 17.433594 -45.777344 17.292969 -46.421875 17.003906 -47.140625 C 16.71875 -47.785156 16.359375 -48.359375 15.855469 -48.933594 C 15.28125 -49.4375 14.636719 -49.867188 13.917969 -50.226562 C 13.203125 -50.582031 12.339844 -50.800781 11.335938 -50.800781 C 10.332031 -50.800781 9.398438 -50.582031 8.683594 -50.226562 C 7.964844 -49.867188 7.320312 -49.4375 6.816406 -48.863281 C 6.242188 -48.289062 5.882812 -47.714844 5.597656 -47.066406 C 5.308594 -46.351562 5.238281 -45.703125 5.238281 -45.128906 Z M 5.238281 -5.597656 "/></g></g></g><g fill="#000000" fill-opacity="1"><g transform="translate(189.131472, 106.440984)"><g><path d="M 24.695312 -9.039062 C 23.773438 -8.203125 22.851562 -7.617188 21.890625 -7.242188 C 20.925781 -6.820312 19.796875 -6.65625 18.5 -6.65625 C 17.117188 -6.65625 15.90625 -6.863281 14.898438 -7.28125 C 13.855469 -7.699219 12.976562 -8.246094 12.304688 -9 C 11.59375 -9.753906 11.050781 -10.589844 10.714844 -11.59375 C 10.378906 -12.597656 10.210938 -13.6875 10.210938 -14.859375 C 10.210938 -15.988281 10.378906 -17.078125 10.714844 -18.082031 C 11.050781 -19.085938 11.59375 -19.921875 12.304688 -20.675781 C 12.976562 -21.429688 13.855469 -22.015625 14.898438 -22.433594 C 15.90625 -22.851562 17.117188 -23.0625 18.5 -23.0625 C 19.503906 -23.0625 20.507812 -22.894531 21.511719 -22.601562 C 22.515625 -22.265625 23.4375 -21.765625 24.191406 -21.09375 C 24.273438 -21.011719 24.359375 -20.96875 24.441406 -20.886719 L 24.695312 -20.632812 C 24.988281 -20.339844 25.320312 -20.089844 25.742188 -19.878906 C 26.117188 -19.671875 26.621094 -19.585938 27.246094 -19.585938 C 27.832031 -19.585938 28.335938 -19.671875 28.753906 -19.878906 C 29.171875 -20.089844 29.550781 -20.339844 29.882812 -20.675781 C 30.175781 -20.96875 30.386719 -21.304688 30.554688 -21.722656 C 30.722656 -22.140625 30.804688 -22.515625 30.804688 -22.894531 C 30.804688 -23.6875 30.511719 -24.441406 29.925781 -25.113281 C 29.257812 -25.867188 28.460938 -26.535156 27.539062 -27.121094 C 26.621094 -27.707031 25.699219 -28.167969 24.695312 -28.542969 C 23.6875 -28.921875 22.644531 -29.214844 21.597656 -29.382812 C 20.507812 -29.550781 19.503906 -29.675781 18.5 -29.675781 C 16.324219 -29.675781 14.273438 -29.296875 12.390625 -28.585938 C 10.503906 -27.875 8.875 -26.871094 7.535156 -25.574219 C 6.152344 -24.273438 5.0625 -22.726562 4.3125 -20.925781 C 3.515625 -19.085938 3.140625 -17.078125 3.140625 -14.859375 C 3.140625 -12.597656 3.515625 -10.589844 4.3125 -8.746094 C 5.0625 -6.90625 6.152344 -5.355469 7.535156 -4.058594 C 8.875 -2.761719 10.503906 -1.757812 12.390625 -1.046875 C 14.273438 -0.335938 16.324219 0 18.5 0 C 20.339844 0 22.097656 -0.25 23.816406 -0.796875 C 25.53125 -1.339844 27.078125 -2.175781 28.460938 -3.265625 C 29.046875 -3.683594 29.550781 -4.183594 30.050781 -4.730469 C 30.554688 -5.273438 30.804688 -5.941406 30.804688 -6.78125 C 30.804688 -7.15625 30.722656 -7.535156 30.554688 -7.953125 C 30.386719 -8.328125 30.175781 -8.664062 29.882812 -9 C 29.550781 -9.292969 29.171875 -9.542969 28.753906 -9.753906 C 28.335938 -9.960938 27.832031 -10.085938 27.246094 -10.085938 C 26.621094 -10.085938 26.117188 -9.960938 25.742188 -9.753906 C 25.320312 -9.542969 24.988281 -9.292969 24.695312 -9.039062 Z M 24.695312 -9.039062 "/></g></g><g transform="translate(223.117005, 106.440984)"><g><path d="M 18.25 -12.515625 C 19.839844 -13.394531 21.09375 -14.480469 21.972656 -15.738281 C 22.808594 -16.992188 23.269531 -18.625 23.269531 -20.550781 C 23.269531 -21.679688 23.019531 -22.808594 22.601562 -23.898438 C 22.183594 -24.988281 21.554688 -25.992188 20.71875 -26.871094 C 19.878906 -27.707031 18.875 -28.417969 17.664062 -28.921875 C 16.449219 -29.421875 15.066406 -29.714844 13.519531 -29.714844 L 6.695312 -29.714844 C 6.109375 -29.714844 5.566406 -29.589844 5.148438 -29.382812 C 4.730469 -29.171875 4.351562 -28.921875 4.058594 -28.585938 C 3.726562 -28.25 3.515625 -27.917969 3.347656 -27.539062 C 3.179688 -27.121094 3.140625 -26.746094 3.140625 -26.367188 L 3.140625 -3.347656 C 3.140625 -2.972656 3.179688 -2.59375 3.347656 -2.21875 C 3.515625 -1.800781 3.726562 -1.464844 4.019531 -1.128906 C 4.3125 -0.796875 4.6875 -0.503906 5.105469 -0.292969 C 5.523438 -0.0820312 6.070312 0 6.65625 0 C 7.242188 0 7.742188 -0.0820312 8.203125 -0.292969 C 8.621094 -0.503906 9 -0.753906 9.292969 -1.089844 C 9.585938 -1.421875 9.792969 -1.757812 9.960938 -2.175781 C 10.085938 -2.554688 10.171875 -2.929688 10.171875 -3.304688 L 10.171875 -10.964844 C 10.171875 -11.132812 10.210938 -11.257812 10.296875 -11.300781 C 10.378906 -11.34375 10.421875 -11.382812 10.464844 -11.382812 C 10.632812 -11.382812 10.839844 -11.257812 11.007812 -11.050781 L 16.867188 -1.632812 C 17.160156 -1.128906 17.578125 -0.753906 18.082031 -0.460938 C 18.582031 -0.125 19.210938 0 19.921875 0 C 20.507812 0 21.011719 -0.0820312 21.429688 -0.292969 C 21.847656 -0.503906 22.222656 -0.753906 22.515625 -1.089844 C 22.808594 -1.382812 23.019531 -1.714844 23.1875 -2.132812 C 23.355469 -2.554688 23.4375 -2.929688 23.4375 -3.304688 C 23.4375 -3.890625 23.269531 -4.476562 22.9375 -4.980469 C 22.769531 -5.191406 22.433594 -5.691406 21.929688 -6.527344 C 21.429688 -7.324219 20.886719 -8.203125 20.300781 -9.167969 C 19.964844 -9.625 19.671875 -10.085938 19.421875 -10.503906 C 19.167969 -10.925781 18.917969 -11.34375 18.707031 -11.675781 C 18.457031 -12.011719 18.332031 -12.304688 18.25 -12.515625 Z M 10.128906 -18.707031 L 10.128906 -22.390625 C 10.128906 -22.601562 10.171875 -22.769531 10.339844 -22.894531 C 10.464844 -22.976562 10.589844 -23.0625 10.671875 -23.0625 L 13.433594 -23.0625 C 14.273438 -23.0625 14.941406 -22.808594 15.402344 -22.390625 C 15.863281 -21.972656 16.113281 -21.34375 16.113281 -20.550781 C 16.113281 -19.714844 15.863281 -19.085938 15.402344 -18.667969 C 14.941406 -18.25 14.273438 -18.039062 13.433594 -18.039062 L 10.671875 -18.039062 C 10.589844 -18.039062 10.464844 -18.082031 10.339844 -18.207031 C 10.171875 -18.289062 10.128906 -18.457031 10.128906 -18.707031 Z M 10.128906 -18.707031 "/></g></g><g transform="translate(249.819924, 106.440984)"><g><path d="M 6.65625 0 L 18.5 0 C 19.085938 0 19.585938 -0.0820312 20.046875 -0.292969 C 20.464844 -0.503906 20.84375 -0.753906 21.136719 -1.089844 C 21.429688 -1.421875 21.636719 -1.757812 21.804688 -2.175781 C 21.929688 -2.554688 22.015625 -2.929688 22.015625 -3.304688 C 22.015625 -3.683594 21.929688 -4.058594 21.765625 -4.476562 C 21.597656 -4.855469 21.386719 -5.191406 21.09375 -5.523438 C 20.757812 -5.816406 20.382812 -6.070312 19.964844 -6.277344 C 19.546875 -6.488281 19.042969 -6.613281 18.457031 -6.613281 L 10.671875 -6.613281 C 10.589844 -6.613281 10.464844 -6.65625 10.339844 -6.738281 C 10.171875 -6.820312 10.128906 -6.988281 10.128906 -7.242188 L 10.128906 -11.59375 C 10.128906 -11.804688 10.171875 -11.96875 10.339844 -12.097656 C 10.464844 -12.179688 10.589844 -12.261719 10.671875 -12.261719 L 16.28125 -12.261719 C 16.867188 -12.261719 17.371094 -12.347656 17.789062 -12.554688 C 18.207031 -12.765625 18.582031 -13.015625 18.875 -13.351562 C 19.167969 -13.6875 19.378906 -14.019531 19.546875 -14.441406 C 19.714844 -14.816406 19.796875 -15.191406 19.796875 -15.570312 C 19.796875 -15.945312 19.714844 -16.324219 19.546875 -16.742188 C 19.378906 -17.117188 19.167969 -17.453125 18.875 -17.789062 C 18.542969 -18.082031 18.164062 -18.332031 17.746094 -18.542969 C 17.328125 -18.75 16.824219 -18.875 16.238281 -18.875 L 10.632812 -18.875 C 10.546875 -18.875 10.421875 -18.917969 10.296875 -19 C 10.128906 -19.085938 10.085938 -19.253906 10.085938 -19.503906 L 10.085938 -22.390625 C 10.085938 -22.601562 10.128906 -22.769531 10.296875 -22.894531 C 10.421875 -22.976562 10.546875 -23.0625 10.632812 -23.0625 L 18.414062 -23.0625 C 19 -23.0625 19.503906 -23.144531 19.964844 -23.355469 C 20.382812 -23.5625 20.757812 -23.816406 21.050781 -24.148438 C 21.34375 -24.441406 21.554688 -24.777344 21.722656 -25.195312 C 21.847656 -25.574219 21.929688 -25.949219 21.929688 -26.328125 C 21.929688 -26.703125 21.847656 -27.078125 21.679688 -27.5 C 21.511719 -27.875 21.304688 -28.210938 21.011719 -28.542969 C 20.675781 -28.835938 20.300781 -29.089844 19.878906 -29.296875 C 19.460938 -29.507812 18.960938 -29.632812 18.375 -29.632812 L 6.527344 -29.632812 C 5.941406 -29.632812 5.398438 -29.507812 4.980469 -29.296875 C 4.5625 -29.089844 4.183594 -28.835938 3.890625 -28.503906 C 3.558594 -28.167969 3.347656 -27.832031 3.179688 -27.457031 C 3.011719 -27.039062 2.972656 -26.660156 2.972656 -26.328125 L 2.972656 -3.265625 C 2.972656 -2.847656 3.054688 -2.425781 3.222656 -2.050781 C 3.390625 -1.632812 3.640625 -1.296875 3.976562 -1.003906 C 4.3125 -0.667969 4.6875 -0.417969 5.148438 -0.25 C 5.609375 -0.0820312 6.109375 0 6.65625 0 Z M 6.65625 0 "/></g></g></g><g fill="#000000" fill-opacity="1"><g transform="translate(275.016081, 106.440984)"><g><path d="M 20.300781 -27.078125 C 20.046875 -27.75 19.546875 -28.335938 18.875 -28.878906 C 18.164062 -29.382812 17.328125 -29.675781 16.363281 -29.675781 C 15.359375 -29.675781 14.523438 -29.382812 13.8125 -28.878906 C 13.101562 -28.378906 12.597656 -27.75 12.347656 -27.078125 L 3.347656 -4.476562 C 3.179688 -4.101562 3.140625 -3.726562 3.140625 -3.304688 C 3.140625 -2.929688 3.179688 -2.554688 3.347656 -2.175781 C 3.515625 -1.757812 3.726562 -1.421875 4.019531 -1.128906 C 4.3125 -0.796875 4.6875 -0.542969 5.148438 -0.335938 C 5.566406 -0.125 6.070312 -0.0429688 6.65625 -0.0429688 C 7.492188 -0.0429688 8.203125 -0.25 8.789062 -0.710938 C 9.332031 -1.128906 9.710938 -1.632812 9.960938 -2.21875 L 12.304688 -8.121094 C 12.347656 -8.203125 12.429688 -8.289062 12.515625 -8.371094 C 12.597656 -8.414062 12.722656 -8.453125 12.808594 -8.453125 L 19.878906 -8.453125 C 20.046875 -8.453125 20.214844 -8.328125 20.382812 -8.121094 L 22.683594 -2.21875 C 22.894531 -1.632812 23.269531 -1.128906 23.855469 -0.710938 C 24.402344 -0.25 25.113281 -0.0429688 25.992188 -0.0429688 C 26.578125 -0.0429688 27.078125 -0.125 27.5 -0.335938 C 27.917969 -0.542969 28.292969 -0.796875 28.628906 -1.128906 C 28.921875 -1.421875 29.128906 -1.757812 29.296875 -2.175781 C 29.464844 -2.554688 29.550781 -2.929688 29.550781 -3.304688 C 29.550781 -3.726562 29.464844 -4.144531 29.296875 -4.476562 Z M 16.324219 -18.121094 C 16.40625 -17.871094 16.492188 -17.664062 16.574219 -17.453125 C 16.65625 -17.203125 16.785156 -16.992188 16.867188 -16.742188 C 16.949219 -16.449219 17.078125 -16.199219 17.203125 -15.945312 C 17.285156 -15.695312 17.371094 -15.445312 17.453125 -15.234375 C 17.496094 -15.109375 17.535156 -15.027344 17.535156 -15.027344 L 15.027344 -15.027344 C 15.066406 -15.066406 15.109375 -15.109375 15.109375 -15.191406 C 15.277344 -15.695312 15.484375 -16.15625 15.695312 -16.65625 C 15.863281 -17.160156 16.070312 -17.621094 16.324219 -18.121094 Z M 16.324219 -18.121094 "/></g></g></g><g fill="#000000" fill-opacity="1"><g transform="translate(307.662276, 106.440984)"><g><path d="M 6.613281 -29.589844 C 6.027344 -29.589844 5.484375 -29.464844 5.0625 -29.257812 C 4.644531 -29.046875 4.269531 -28.796875 3.976562 -28.460938 C 3.640625 -28.125 3.433594 -27.792969 3.265625 -27.414062 C 3.097656 -26.996094 3.054688 -26.621094 3.054688 -26.285156 C 3.054688 -25.867188 3.140625 -25.449219 3.304688 -25.070312 C 3.472656 -24.695312 3.683594 -24.359375 4.019531 -24.066406 C 4.3125 -23.730469 4.6875 -23.480469 5.148438 -23.3125 C 5.566406 -23.144531 6.070312 -23.0625 6.65625 -23.0625 L 11.511719 -23.0625 C 11.59375 -23.0625 11.71875 -22.976562 11.84375 -22.894531 C 11.96875 -22.769531 12.054688 -22.601562 12.054688 -22.390625 L 12.054688 -3.304688 C 12.054688 -2.929688 12.097656 -2.554688 12.261719 -2.175781 C 12.429688 -1.757812 12.640625 -1.421875 12.933594 -1.089844 C 13.226562 -0.753906 13.601562 -0.460938 14.019531 -0.25 C 14.441406 -0.0429688 14.984375 0.0429688 15.570312 0.0429688 C 16.15625 0.0429688 16.65625 -0.0429688 17.117188 -0.25 C 17.535156 -0.460938 17.914062 -0.710938 18.207031 -1.046875 C 18.5 -1.382812 18.707031 -1.714844 18.875 -2.132812 C 19 -2.511719 19.085938 -2.886719 19.085938 -3.265625 L 19.085938 -22.351562 C 19.085938 -22.558594 19.128906 -22.726562 19.292969 -22.851562 C 19.421875 -22.9375 19.546875 -23.019531 19.628906 -23.019531 L 24.484375 -23.019531 C 25.070312 -23.019531 25.574219 -23.101562 26.035156 -23.3125 C 26.453125 -23.523438 26.828125 -23.773438 27.121094 -24.109375 C 27.414062 -24.402344 27.625 -24.734375 27.792969 -25.15625 C 27.917969 -25.574219 28 -25.949219 28 -26.328125 C 28 -26.660156 27.917969 -27.039062 27.75 -27.457031 C 27.582031 -27.832031 27.371094 -28.167969 27.078125 -28.503906 C 26.746094 -28.796875 26.367188 -29.046875 25.949219 -29.257812 C 25.53125 -29.464844 25.027344 -29.589844 24.441406 -29.589844 Z M 6.613281 -29.589844 "/></g></g><g transform="translate(338.885438, 106.440984)"><g><path d="M 6.65625 0 L 18.5 0 C 19.085938 0 19.585938 -0.0820312 20.046875 -0.292969 C 20.464844 -0.503906 20.84375 -0.753906 21.136719 -1.089844 C 21.429688 -1.421875 21.636719 -1.757812 21.804688 -2.175781 C 21.929688 -2.554688 22.015625 -2.929688 22.015625 -3.304688 C 22.015625 -3.683594 21.929688 -4.058594 21.765625 -4.476562 C 21.597656 -4.855469 21.386719 -5.191406 21.09375 -5.523438 C 20.757812 -5.816406 20.382812 -6.070312 19.964844 -6.277344 C 19.546875 -6.488281 19.042969 -6.613281 18.457031 -6.613281 L 10.671875 -6.613281 C 10.589844 -6.613281 10.464844 -6.65625 10.339844 -6.738281 C 10.171875 -6.820312 10.128906 -6.988281 10.128906 -7.242188 L 10.128906 -11.59375 C 10.128906 -11.804688 10.171875 -11.96875 10.339844 -12.097656 C 10.464844 -12.179688 10.589844 -12.261719 10.671875 -12.261719 L 16.28125 -12.261719 C 16.867188 -12.261719 17.371094 -12.347656 17.789062 -12.554688 C 18.207031 -12.765625 18.582031 -13.015625 18.875 -13.351562 C 19.167969 -13.6875 19.378906 -14.019531 19.546875 -14.441406 C 19.714844 -14.816406 19.796875 -15.191406 19.796875 -15.570312 C 19.796875 -15.945312 19.714844 -16.324219 19.546875 -16.742188 C 19.378906 -17.117188 19.167969 -17.453125 18.875 -17.789062 C 18.542969 -18.082031 18.164062 -18.332031 17.746094 -18.542969 C 17.328125 -18.75 16.824219 -18.875 16.238281 -18.875 L 10.632812 -18.875 C 10.546875 -18.875 10.421875 -18.917969 10.296875 -19 C 10.128906 -19.085938 10.085938 -19.253906 10.085938 -19.503906 L 10.085938 -22.390625 C 10.085938 -22.601562 10.128906 -22.769531 10.296875 -22.894531 C 10.421875 -22.976562 10.546875 -23.0625 10.632812 -23.0625 L 18.414062 -23.0625 C 19 -23.0625 19.503906 -23.144531 19.964844 -23.355469 C 20.382812 -23.5625 20.757812 -23.816406 21.050781 -24.148438 C 21.34375 -24.441406 21.554688 -24.777344 21.722656 -25.195312 C 21.847656 -25.574219 21.929688 -25.949219 21.929688 -26.328125 C 21.929688 -26.703125 21.847656 -27.078125 21.679688 -27.5 C 21.511719 -27.875 21.304688 -28.210938 21.011719 -28.542969 C 20.675781 -28.835938 20.300781 -29.089844 19.878906 -29.296875 C 19.460938 -29.507812 18.960938 -29.632812 18.375 -29.632812 L 6.527344 -29.632812 C 5.941406 -29.632812 5.398438 -29.507812 4.980469 -29.296875 C 4.5625 -29.089844 4.183594 -28.835938 3.890625 -28.503906 C 3.558594 -28.167969 3.347656 -27.832031 3.179688 -27.457031 C 3.011719 -27.039062 2.972656 -26.660156 2.972656 -26.328125 L 2.972656 -3.265625 C 2.972656 -2.847656 3.054688 -2.425781 3.222656 -2.050781 C 3.390625 -1.632812 3.640625 -1.296875 3.976562 -1.003906 C 4.3125 -0.667969 4.6875 -0.417969 5.148438 -0.25 C 5.609375 -0.0820312 6.109375 0 6.65625 0 Z M 6.65625 0 "/></g></g></g><g fill="#000000" fill-opacity="1"><g transform="translate(364.0816, 106.440984)"><g><path d="M 18.25 -12.515625 C 19.839844 -13.394531 21.09375 -14.480469 21.972656 -15.738281 C 22.808594 -16.992188 23.269531 -18.625 23.269531 -20.550781 C 23.269531 -21.679688 23.019531 -22.808594 22.601562 -23.898438 C 22.183594 -24.988281 21.554688 -25.992188 20.71875 -26.871094 C 19.878906 -27.707031 18.875 -28.417969 17.664062 -28.921875 C 16.449219 -29.421875 15.066406 -29.714844 13.519531 -29.714844 L 6.695312 -29.714844 C 6.109375 -29.714844 5.566406 -29.589844 5.148438 -29.382812 C 4.730469 -29.171875 4.351562 -28.921875 4.058594 -28.585938 C 3.726562 -28.25 3.515625 -27.917969 3.347656 -27.539062 C 3.179688 -27.121094 3.140625 -26.746094 3.140625 -26.367188 L 3.140625 -3.347656 C 3.140625 -2.972656 3.179688 -2.59375 3.347656 -2.21875 C 3.515625 -1.800781 3.726562 -1.464844 4.019531 -1.128906 C 4.3125 -0.796875 4.6875 -0.503906 5.105469 -0.292969 C 5.523438 -0.0820312 6.070312 0 6.65625 0 C 7.242188 0 7.742188 -0.0820312 8.203125 -0.292969 C 8.621094 -0.503906 9 -0.753906 9.292969 -1.089844 C 9.585938 -1.421875 9.792969 -1.757812 9.960938 -2.175781 C 10.085938 -2.554688 10.171875 -2.929688 10.171875 -3.304688 L 10.171875 -10.964844 C 10.171875 -11.132812 10.210938 -11.257812 10.296875 -11.300781 C 10.378906 -11.34375 10.421875 -11.382812 10.464844 -11.382812 C 10.632812 -11.382812 10.839844 -11.257812 11.007812 -11.050781 L 16.867188 -1.632812 C 17.160156 -1.128906 17.578125 -0.753906 18.082031 -0.460938 C 18.582031 -0.125 19.210938 0 19.921875 0 C 20.507812 0 21.011719 -0.0820312 21.429688 -0.292969 C 21.847656 -0.503906 22.222656 -0.753906 22.515625 -1.089844 C 22.808594 -1.382812 23.019531 -1.714844 23.1875 -2.132812 C 23.355469 -2.554688 23.4375 -2.929688 23.4375 -3.304688 C 23.4375 -3.890625 23.269531 -4.476562 22.9375 -4.980469 C 22.769531 -5.191406 22.433594 -5.691406 21.929688 -6.527344 C 21.429688 -7.324219 20.886719 -8.203125 20.300781 -9.167969 C 19.964844 -9.625 19.671875 -10.085938 19.421875 -10.503906 C 19.167969 -10.925781 18.917969 -11.34375 18.707031 -11.675781 C 18.457031 -12.011719 18.332031 -12.304688 18.25 -12.515625 Z M 10.128906 -18.707031 L 10.128906 -22.390625 C 10.128906 -22.601562 10.171875 -22.769531 10.339844 -22.894531 C 10.464844 -22.976562 10.589844 -23.0625 10.671875 -23.0625 L 13.433594 -23.0625 C 14.273438 -23.0625 14.941406 -22.808594 15.402344 -22.390625 C 15.863281 -21.972656 16.113281 -21.34375 16.113281 -20.550781 C 16.113281 -19.714844 15.863281 -19.085938 15.402344 -18.667969 C 14.941406 -18.25 14.273438 -18.039062 13.433594 -18.039062 L 10.671875 -18.039062 C 10.589844 -18.039062 10.464844 -18.082031 10.339844 -18.207031 C 10.171875 -18.289062 10.128906 -18.457031 10.128906 -18.707031 Z M 10.128906 -18.707031 "/></g></g></g><g clip-path="url(#5220b21769)"><g clip-path="url(#e62cdc6047)"><g clip-path="url(#15c26a4440)"><path fill="#5271ff" d="M 72.847656 45.535156 L 108.054688 80.742188 L 73.707031 115.089844 L 38.496094 79.882812 Z M 72.847656 45.535156 " fill-opacity="1" fill-rule="nonzero"/></g></g></g><g clip-path="url(#bc63622a57)"><g clip-path="url(#51f91e1343)"><g clip-path="url(#44877ab903)"><path fill="#5ce1e6" d="M 90.730469 45.136719 L 124.453125 78.863281 L 90.730469 112.585938 L 57.007812 78.863281 Z M 90.730469 45.136719 " fill-opacity="1" fill-rule="nonzero"/></g></g></g><g clip-path="url(#cbe53a0e24)"><g clip-path="url(#2d3d8b4c36)"><g clip-path="url(#a5b017933a)"><path fill="#5e17eb" d="M 83.640625 53.796875 L 109.796875 79.953125 L 83.640625 106.113281 L 57.480469 79.953125 Z M 83.640625 53.796875 " fill-opacity="1" fill-rule="nonzero"/></g></g></g><g clip-path="url(#143a763225)"><path fill="#ffffff" d="M 74.695312 72.859375 C 76.082031 72.859375 77.335938 72.320312 78.285156 71.449219 L 91.300781 79.058594 C 91.203125 79.46875 91.136719 79.898438 91.136719 80.339844 C 91.136719 80.777344 91.203125 81.210938 91.300781 81.621094 L 78.421875 89.15625 C 77.445312 88.242188 76.136719 87.671875 74.695312 87.671875 C 71.671875 87.671875 69.214844 90.136719 69.214844 93.164062 C 69.214844 96.195312 71.671875 98.660156 74.695312 98.660156 C 77.71875 98.660156 80.175781 96.195312 80.175781 93.164062 C 80.175781 92.726562 80.113281 92.296875 80.011719 91.882812 L 92.890625 84.347656 C 93.867188 85.265625 95.175781 85.832031 96.617188 85.832031 C 99.640625 85.832031 102.097656 83.371094 102.097656 80.339844 C 102.097656 77.308594 99.640625 74.847656 96.617188 74.847656 C 95.175781 74.847656 93.867188 75.414062 92.890625 76.328125 L 79.875 68.722656 C 79.964844 68.335938 80.019531 67.933594 80.019531 67.523438 C 80.019531 64.574219 77.636719 62.183594 74.695312 62.183594 C 71.753906 62.183594 69.367188 64.574219 69.367188 67.523438 C 69.367188 70.46875 71.753906 72.859375 74.695312 72.859375 Z M 74.695312 72.859375 " fill-opacity="1" fill-rule="nonzero"/></g><g clip-path="url(#da5e75eada)"><g clip-path="url(#898f0fa995)"><g clip-path="url(#811040387b)"><path fill="#ffffff" d="M 57.464844 82.378906 C 58.136719 81.238281 58.292969 79.945312 58.035156 78.738281 L 70.617188 71.71875 C 70.910156 72 71.234375 72.261719 71.597656 72.476562 C 71.960938 72.691406 72.347656 72.847656 72.738281 72.964844 L 72.746094 87.226562 C 71.515625 87.585938 70.417969 88.386719 69.71875 89.574219 C 68.257812 92.0625 69.105469 95.28125 71.613281 96.753906 C 74.121094 98.222656 77.34375 97.398438 78.808594 94.910156 C 80.269531 92.417969 79.417969 89.199219 76.910156 87.730469 C 76.546875 87.515625 76.160156 87.359375 75.773438 87.242188 L 75.761719 72.980469 C 76.992188 72.621094 78.09375 71.820312 78.792969 70.632812 C 80.253906 68.144531 79.402344 64.925781 76.894531 63.453125 C 74.390625 61.980469 71.164062 62.808594 69.703125 65.296875 C 69.007812 66.484375 68.84375 67.835938 69.128906 69.085938 L 56.546875 76.105469 C 56.269531 75.84375 55.964844 75.601562 55.625 75.402344 C 53.183594 73.972656 50.054688 74.773438 48.636719 77.195312 C 47.214844 79.617188 48.039062 82.738281 50.476562 84.171875 C 52.914062 85.601562 56.042969 84.800781 57.464844 82.378906 Z M 57.464844 82.378906 " fill-opacity="1" fill-rule="nonzero"/></g></g></g></svg>